/* XPM */
static char *_4667afbfe824e20d67eca1b926c9e89[] = {
/* columns rows colors chars-per-pixel */
"64 64 44 1 ",
"  c #64532E",
". c #675430",
"X c #6B5632",
"o c #6E5834",
"O c #725B37",
"+ c #745E38",
"@ c #73613C",
"# c #78633F",
"$ c #7B6541",
"% c #7F6844",
"& c #846D3F",
"* c #806945",
"= c #896F41",
"- c #8C7244",
"; c #907346",
": c #927648",
"> c #957B4B",
", c #997D4F",
"< c #877551",
"1 c #897651",
"2 c #907955",
"3 c #9F844D",
"4 c #9D8151",
"5 c #A1854E",
"6 c #A48750",
"7 c #A68852",
"8 c #AB8B55",
"9 c #AE8E58",
"0 c #B08D57",
"q c #B28F59",
"w c #B4915B",
"e c #B8955F",
"r c #BA9761",
"t c #B39861",
"y c #BC9862",
"u c #BE9F68",
"i c #BFA06A",
"p c #C09F69",
"a c #C4A36D",
"s c #C8A46E",
"d c #C7A670",
"f c #C9A770",
"g c #CDAA74",
"h c #D0AC76",
/* pixels */
"ddhsiiittittteitshedfhhhghssetfawettaihhhhhhhhhhhhhhhhgghgthheg8",
"grrwrr9w3355w83w5739yrreyyw580q83333yw8yy70y9yyyyeywyeeeyyweepe3",
"i55we3ry99030qww9qwwwwww8357755533337733555q0e755337wwwwweqyeyy5",
"i86374wwwwww7897w097www8w33658559733w3735q758w553388www7398q5er8",
"i9yey3r6e7355530333537770q773qqww63w98t6wwwqwqwe9yye73737330wew5",
"fryyyyrre553755y55595553qwewwqeeeweeyeyeweewwweweyy837r353w9wwe3",
"gyyyye,7eeyyy93ey78ye97yeyewyyeeyyeyyeyyweyyqwyweyyyr9wrr3ye3yy6",
"hyyy9:+#7yy7ywyyryryyyeeyey5yyeewyyeyyyyee8yyyy5wyyewerwyywyyyy3",
"frr85&oO>3883755357yyrwew6837r93eyyy535573335835wyqwqwrwewepeey5",
"g8rw75*=79753733330yywwww6853738wyyy5003553335397w7qwwwwwwywepe5",
"f73w5366q5q8q87q797855333rrr86w3wwwwq08qwq78wq0w75qw33ww0weqwww5",
"g6e353qq9qreqeqqwww358073e96r8yw7ww0ww55w5q75w7w553533wywwewweq5",
"hy9ry9rywqeqwww0wryy3eeyr6ry3eq9673783338755377wwyyr4rwyrerreyy7",
"gyr9rtrrpr55eq5qwyyyyyryr973e59rw7857e5550r5557ewryq93ryerqryyy5",
"2@@@+$+$*O$$$*+$$@%%%%%%*%**$$%%#**@#&$#O#@@O@%$@%#O@@@++$&*****",
". X O.. o..oOO  ..OO@XO XoXXXOOOOOOO@OooOo         o  .X  OOOOOO",
"ggfhhghhhshhhhfgtgggtiddhhaddgh8hhhsgssssseepsssgthiduhhhgghhhhh",
"ey5y7r5y9ryyyeerrere9888re83yyy3hyyw5wwq75qq0wwwyyryrrry6rrw33y3",
"3t5337833555553w33e8wt33389qwww3sqw0755qw857550wrryy3r8w3->553y3",
"79e66w33353535053638wy7356qq3w08e5055505555577wwyewwqq87=+$,5333",
"yrr39wwww83q7q7w3yywyryt83760q53e3335qqqww87qwwwewwqq558&o+>8ww7",
"y9rrweewwwqwww8wqy5wyyrr76333935t339785weqwqeqwwewrwwq7q8--09wqq",
"e773wyerwrw375833373qrrrryr35w55hy83wpeewepeepwwrywery7055,q3333",
"333y9yyyeyy5w333r8580etwqe9wyyq3h83reep855e0ye0wrrwyry7375333395",
"rwryrryyyyyy7yweww63533y97rewwr5t6w333rw55855q8qw8wwreereey87ewe",
"eyewrr3yyr7eyyryrwwr6y8r6rwwqww5ty39676wwq8035556wwwrr875pwewwep",
"eww75373939wyyrryrrryyyy3wrryyr3h3yw97w9q55w35856333r37558wwwwww",
"www03y533337yyyw38eyyyyyeyrrryr3ayryw07w0q55755533w8wy07qywwwyww",
"yeey7yr75557577573y6werrwrweeyy7hyyry88q55557qw83y68yywe5yqeeyye",
"y5yyyere7357555e9333w9wwweqwwy95hy7ey75558559qewwereyeyy3eyyyyey",
"@#@###$$$$******%%$%%%%*%%*%$*$#<@@@@#@@*##****%%%%****%@@@#@O+@",
"      ooOOOoOOOOOOOOOOOOOOoo  o      OOOOO+OOOOOOOO@OOO OO.   O ",
"ffidhhwiieehgiieafyfahhhhhfgaeiaettdthhihhhhhgfhhhhhhhhhhssyehe9",
"h6eye683393793365555epewy503660333336eeyywyre,6wrrepqrrywwereye3",
"a73387eae30w730008weqeqe73733933833337838w58;O#555rr0qywrqrwyew3",
"i33e37eww7wwwww987wqq7806333363736333377w,5,;o+>r58586888qqwewy8",
"aw7ee5eye3333w63305337850wwww996ww0wyw78q8q0q;=8rr0p7,553637wwe3",
"aeyyeayyt633793333359535wwwwweewwwwwyyteqeqqq0q0prrerw05w6e3www3",
"hyyyeeyeeeeyyyy7yee0yy7yeeyyryrweeywyyyyrewrprrreeeryyy,y7yyeye6",
"hyyyw3ie9ieywyyeee7yyyyeyye5eyy9yyyey8y9prrrr8erqpperqwreeyyyyy3",
"hyeyt33e3338eeeeweeyyyewywr33333eyyy585753e5575qwewwwqeeweyyyei5",
"he73335w00838y6e7w7ey7w69936r33eyeyw755553355556wq5085wwweeeeee3",
"i33337www703w357870636786eery36ee0ewwqq7qw7www80803585wwwwwwwww5",
"e333380we8wwwwww0wye3363339y93we8835wqw7q5wqwwqq555557qwewwweqe5",
"a85eeeeeweeewwqwyee7eye7ew9739w095q053755qweeerqeyyeeywywyeeeey7",
"hieee95ie9eeeq79wyyeyyyere67e6ee373377y5w7qqwyr5wye0yyyyyy7eepe7",
"1@@#@###@@@@#@#@@***%***%%%%%%%**#@%#**@@@@##&+$@@$@@#*#@*&%****",
" Oo        XOOo.o.OOXX@oXOooOOOoOOOOOOo.o. ...   Oo Oo   oO@OOOX",
"hgaggtghghddhhhdgigftygttttatgh9hhhshssssepesssghhhehhaghygghhfh",
"83w8rrry6wtweree7ey8337ew6w8ryy7gyye0q0qq05000wwwyrre59w399erryr",
"5535385q63335757r357ryrew0w88yw3heeww5550555500wyyrr8y557336-,r3",
"3e367358333333553363urye59ww7w33s7w033553358,75eeytr755q387=@@43",
"eie3ww8qwqqq8wq7wr39yrr995w33563y558505qqqwqwwwwwrw09090qq0&o@,8",
"we7ew9twqwww7qww5eeyyyyy85e73rr6t533787qqqqewewwywwwq8w7q050--57",
"e333033wp0y5q8575557wey9yy6yry96iwr388yeeeeeeepeyeyeee5708555355",
"53e3&@$6reryw35975q58ryre7rywyy3feyyyyyeeyy7peeeyeyyy9y857305850",
"yrrw:o@4rerrww3yyeq857335wwewww3t373wwweq57535wqe9wryreeeypee0we",
"ryrrt:-3errryryyyrw357w576ewewy3i633w8ww58557558ww7r9wyreeeeepwp",
"eeew5w7w5qqewr9yyyeywyyeeyeeyey3ayy57ww97qw055958339837358qewwww",
"wwwew738500ewwyee7yrrryeyyyeyye3gyyyeww050895585033re335858ewwwq",
"reewr38863333736r757qeeewwwwewy6hy0eey5537w300wwe9yy3ye5yeewweye",
"y77y67rr93y3e3333353eqqewwewe5y6g8ywyy35r5770wwweyyyyyyeey0eyyq5",
"@$*@@@***%%$%$*$%*@$=***#**%#@@#1@@@@@@#*$%$**$%********@#@@@+*#",
"   X..OOOoOoOOOXOOOOOOOO+OOOo.   .  . . OOOOOO+OOOOOOOOO .    . "
};
