/* XPM */
static char *a2c7e295be97486fdc165fae567b03a9[] = {
/* columns rows colors chars-per-pixel */
"64 64 210 2 ",
"   c #231B14",
".  c #2F2614",
"X  c #2F2616",
"o  c #2F261B",
"O  c #2F261D",
"+  c #3A2C14",
"@  c #3A281D",
"#  c #3A2A1D",
"$  c #3A2C1D",
"%  c #3A3115",
"&  c #3A311D",
"*  c #3A311F",
"=  c #3A3120",
"-  c #3A3121",
";  c #3A3127",
":  c #492C0C",
">  c #503008",
",  c #513109",
"<  c #59360C",
"1  c #432714",
"2  c #452A14",
"3  c #492C14",
"4  c #43271D",
"5  c #452A1D",
"6  c #453114",
"7  c #453214",
"8  c #453614",
"9  c #453B15",
"0  c #43311D",
"q  c #45321D",
"w  c #45331D",
"e  c #45311F",
"r  c #453B1D",
"t  c #453B1F",
"y  c #463B1F",
"u  c #503014",
"i  c #503114",
"p  c #513114",
"a  c #573214",
"s  c #573414",
"d  c #593614",
"f  c #593714",
"g  c #593716",
"h  c #593B15",
"j  c #5C3D16",
"k  c #50311B",
"l  c #50301D",
"z  c #57321D",
"x  c #59361B",
"c  c #59371D",
"v  c #513B1F",
"b  c #573B1D",
"n  c #543B1F",
"m  c #433121",
"M  c #453220",
"N  c #453227",
"B  c #453627",
"V  c #493120",
"C  c #453B21",
"Z  c #453B27",
"A  c #573220",
"S  c #593620",
"D  c #573B20",
"F  c #453B31",
"G  c #503B31",
"H  c #573B31",
"J  c #684415",
"K  c #6E4715",
"L  c #6E4617",
"P  c #68451B",
"I  c #68451F",
"U  c #6D461D",
"Y  c #6E471F",
"T  c #794F1D",
"R  c #7A4D1F",
"E  c #7A4E1F",
"W  c #7E521D",
"Q  c #7D521F",
"!  c #7F531F",
"~  c #684420",
"^  c #6E4721",
"/  c #6E4727",
"(  c #7A4D27",
")  c #7E5520",
"_  c #7E5527",
"`  c #7D522B",
"'  c #6D4631",
"]  c #7A4D31",
"[  c #7D5231",
"{  c #7E5531",
"}  c #84541B",
"|  c #87571F",
" . c #8C571F",
".. c #815721",
"X. c #845420",
"o. c #875720",
"O. c #815727",
"+. c #9F692B",
"@. c #876630",
"#. c #876434",
"$. c #876634",
"%. c #8C6632",
"&. c #8C6636",
"*. c #856239",
"=. c #876239",
"-. c #87663A",
";. c #896438",
":. c #916836",
">. c #91683C",
",. c #877732",
"<. c #897130",
"1. c #8B7633",
"2. c #8C7732",
"3. c #8B7936",
"4. c #89713A",
"5. c #89763A",
"6. c #88753C",
"7. c #89783B",
"8. c #8B783A",
"9. c #AD7130",
"0. c #B47633",
"q. c #B37832",
"w. c #BB7933",
"e. c #B87834",
"r. c #BA7934",
"t. c #BD7836",
"y. c #BB7E36",
"u. c #BC7C37",
"i. c #B8783A",
"p. c #BA793A",
"a. c #BB7E3A",
"s. c #BF7E38",
"d. c #BB7E3C",
"f. c #C17F39",
"g. c #8B7946",
"h. c #897651",
"j. c #AD7649",
"k. c #BA7946",
"l. c #BB7E51",
"z. c #B87961",
"x. c #BE823B",
"c. c #BD823C",
"v. c #C38339",
"b. c #C2803A",
"n. c #C7833B",
"m. c #C4823C",
"M. c #C3853C",
"N. c #C2843D",
"B. c #CA853C",
"V. c #DF913D",
"C. c #EC9A3F",
"Z. c #C78A42",
"A. c #D98F42",
"S. c #DE9546",
"D. c #DF9546",
"F. c #DE9547",
"G. c #DE9649",
"H. c #DE9651",
"J. c #E09647",
"K. c #E29B47",
"L. c #E0994E",
"P. c #E7994E",
"I. c #E8984A",
"U. c #EB9F4B",
"Y. c #E19651",
"T. c #E19653",
"R. c #E6A24F",
"E. c #E9A24E",
"W. c #ECA24F",
"Q. c #E0A150",
"!. c #EAA451",
"~. c #EBA552",
"^. c #EBA254",
"/. c #ECA657",
"(. c #ECA759",
"). c #DF9561",
"_. c #EAA461",
"`. c #ECB66E",
"'. c #F8B66E",
"]. c #E6BD8C",
"[. c #ECBD8C",
"{. c #EEBD8C",
"}. c #F8BD8C",
"|. c #F8CA8B",
" X c #E6C29B",
".X c #ECC29B",
"XX c #EBCA9D",
"oX c #ECCA9D",
"OX c #F8CE94",
"+X c #F8D298",
"@X c #FFD298",
"#X c #FFD49C",
"$X c #F8D99D",
"%X c #FFDAA2",
"&X c #FFDDA2",
"*X c #F8DAA4",
"=X c #F8DAA5",
"-X c #FFD9A4",
";X c #FFDAA4",
":X c #FBD3AA",
">X c #F8D7AF",
",X c #ECCAB0",
"<X c #ECCAB8",
"1X c #F2D2B0",
"2X c #F2D2B8",
"3X c #F8D9B8",
"4X c #F8E6D3",
"5X c #FFE6D3",
"6X c #FFEDD3",
"7X c white",
/* pixels */
"                                                                                                                                ",
"                                                                                                                                ",
"        O O O O                 > > > > > > > >                                 a a s s a a a a                 O O O O         ",
"      O O O O O             u u > > > > > > > > u u 7                       a a a J J J J J J a a a             O O O O O       ",
"    O O O O O O           u u u | o.o.o.f.f.u.f.;.;.G F o o O O           a -.-.f.n.0.0.0.0.0.0.X.X.a           O O O O O O     ",
"    O O O F O           u u o.o.| f.s.s.u.u.f.f.s.;.;.F F ; O O O         -.8.m.f.f.f.0.0.0.0.0.f.f.X.X.          O F O O O     ",
"    O O O O           u u o.o.o.u.u.R.R.W.W.B.B.s.a.;.[ F F ; O o o     h 8.f.f.F.F.F.s.0.0.0.f.G.U.!.} X.          O O O O     ",
"    O O O           u o.o.o.s.s.b.W.W.[.{.{.[.B.n.b.;.{ F F ; o O O     g 8.b.f.F.F.G.n.f.0.f.F.G.!.!.} X.a           O O O     ",
"                  u o.o.o.s.s.b.R.W.[.[..X.X{.{.B.B.*.[ F Z ; ; O O     3 5.f.f.J.F.F.F.f.f.f.G.K.R.P.F.X.X.a                   ",
"                u o.o.| s.s.f.n.R.]..X.X4X4X4X{.B.n.[ [ Z Z ; ; O O     3 g f.n.F.F.F.F.F.F.F.G.W.W.Q.F.0.X.X.a                 ",
"              i o.o.o.f.u.f.f.n.]. X.X4X4X4X4XB.B.Q ! v Z Z ; O O O     : < ..f.f.F.F.F.f.G.F.F.[.[.U.!.0.X.X.a a               ",
"            i o.o.o.f.u.f.f.f.]. X.X4X4X4X4X4XB.B.Q ) D Z Z ; O O O     : : ..f.f.F.F.F.f.F.F.[.:X:X[.[.!.0.X.} a a             ",
"          u s o.| u.f.u.u.b.n. X X4X4X4X4X4X[.B.Q Q n t t & O O O O . . + 3 V ..f.G.F.F.F.F.[.:X6X6X6X[.[.0.0...} a a           ",
"        u u | o.w.f.f.w.w.b.n. X.X4X4X4X4X[.B.Q Q n n t w O O O O   . . + 3 w ..) G.F.F.F.U.[.:X6X6X7X7X[.[.0.0.} ( a a         ",
"      i u | | w.b.b.b.w.w.w.J.[..X4X4X4X[.B.Q Q I n 0 w O O O . .     . . # e ~ ) ) F.F.F.U.U.[.:X6X7X7X7X[.{.i.0.) ) a a       ",
"      3 u | w.n.f.f.w.w.w.J.J.[.[.[.[.[.[.! ! I n C w o O . . . .     o o # - V ~ ) ! n.F.U.U.{.[.6X6X7X7X6X{.P.0.0.) a a       ",
"    , , o.w.W.W.n.n.n.w.w.J.J./.{.{.[.[.Q Q I n t 0 o O . . . . . . . . O o $ & e ~ ) ) n.F.U.U.[.[.6X6X6X6X6X[.^.0.0.} s a     ",
"    , , o.`.'.`.W.W.J.J.J.J.J.J.(.(.(.Q Q I I t t O O . . . s s 1 1 . . . o o & = ~ ~ ) ! n.n.E.U.[.[.6X6X6X6X[.^.^.0.! ) s     ",
"    , , `.'.}.}.`.E.W.J.J.J.J.J.F.F.! Q R I t t O O . . . s s s s 1 1 . . . o o $ & ~ ~ ! ! b.R.U.U.[.[.6X6X6X#X^.^.^.0.) a     ",
"    , , `.}.4X4X}./.W.J.J.J.J.J.f.! ! R I t t o O . . . i s | | =.*.1 1 . o . o o & = D P ! ) b.U.U.U.U.[.[.#X[.[.^.^.0.( a     ",
"    > > {.4X4X4X4X[./.F.F.u.f.s.Q Q R I t t o O O . . i s o.| =.c.c.=.1 1 . . o o O = & S ~ ) q.f.U.U.U.[.[.[.#X#X[.^.0.} s     ",
"    > > {.4X4X4X4X[./.f.b.f.u.Q Q R R t t o O O O . i Q o.o.c.c.c.c.C.C.x.1 . o o O o & - S S ) 0.U.U.U.U.[.[.#X#X#X^.0.R s     ",
"    > > ! 4X4X4X[./.n.b.f.u.Q Q R Q t t O O O O O l Q o.o.c.c.c.c.C.[.[.I.u.4 O O O o O & & A A _ 0.U.U.U.U.[.[.#X#X0.} E a     ",
"    > > ! B.[.{.n.b.n.u.s.! ! R t t t O O O O O Q o.o.c.c.c.c.[.[.[.{.XXXXXXs.0.O O O O O & - z c _ 0.0.U.U.[.[.0.0.! } a a     ",
"      u ! 7.n.f.m.b.s.s.Q Q R t t r o o O O O ) -.-.N.M.V.V.[.[.,X,X,X1X3X3X$Xu.q.o o O O O & & A S ) 0.0.0.0.0.0.Q W a a       ",
"      u ! ;.7.7.n.n.) ) ! t t t 4 o O o O O -.6.c.N.V.{.[.[.1X1X1X,X<X3X4X4X$Xx.x.R o O O O O & = A A A ! 1.1.1.! Q W a a       ",
"      8 n ] *.g.=.[ Q Q t t 5 5 O O O O O -.7.N.N.V.[.[.[.1X1X1X1X2X2X3X4X4X$Xx.u.q.R o O O O O & w z A b { [ [ R W b a 6       ",
"        B F ] O.[ [ t t t t 5 O O O O O -.6.s.N.V.[.[.1X1X1X1X1X1X2X2X3X$X$X$XM.b.0.0.T O O O O O & w M H H H H H b r 6         ",
"        O F F F F Z Z Z C 5 # O O O O -.6.N.N.V.[.[.[.1X1X1X1X,X,X,X<X$X$X$X!.Z.M.x.q.( R O O O O & & w N F F F F Z w .         ",
"        O ; F F Z Z Z Z ; # # O o = Y 7.M.M.V.!.[.[.[.1X1X1X1X,XXXXXXXXX~.!.!.M.Z.x.r.0.Q R & o O & & ; N N F F Z Z & .         ",
"        O O ; ; ; ; ; ; ; ; O & + L -.M.N.V.I.!.[.[.[.1X1X1X,X[.[.[.[.[.~.~.~.Z.x.Z.N.0.0.R R $ = O ; ; ; ; ; ; ; ; O O         ",
"        O O O O ; ; O O O O & & % L -.N.I.I.!.!.!.[.[.[.[.[.[.[.[.[.].|.~.!.!.!.Z.N.Z.0.0.R ( = & & O O O O ; ; O O o o         ",
"          O O O O O O O O O O & - / y.I.I.!.[.{.[.!.!.!.K.Z.!.[.[.[.[.[.[.[.!.!.!.Z.N.Z.9.[ ( Z & O O O O O O O O O O           ",
"            O o O O O O O O O & ; / y.I.I.@X&X*X[.!.!.K.Z.Z.Z.!.[.[.*X*X*X$X[.{.!.!.Z.c.0.] R C = O O O O O O O O O             ",
"                        . O o O * ; / u.I.@X%X%X=X~.!.K.K.Z.Z.!.[.*X*X*X*X$X$X[.[.!.R.y.0.] C & O O O O                         ",
"                        . . . o O ; = x.u.+X@X*X*X*X!.!.!.!.!.^.[.*X*X4X4X4X$XOX|.R.R.x.] F C O O O O O                         ",
"            | | | | u u . . . . O O - ; y.y.+X+X%X-X+X!.!.!.!.!.!.$X=X4X4X4X4X$XOXR.x.] F t O O O O O O T T -.-.=.#.            ",
"        @.@.,.%.%.|  . .u u . . X O O ; - x.y.+X@X@X@X!.!.!.!.!.!.$X$X4X4X4X4X$XOXy.r.F F O O O O O T Q $.7.g.g.6.$.#.L         ",
"      | @.,.2.2.q.0. . . .u u . X O O O ; ; r.x.+X@X@X!.!.!.!.!.!.!.$X$X4X4X4XOXy.y.F F O O O O O T T $.i.k.).).z.p.$.$.K       ",
"      | @.%.2.q.q.e.t.f.q. .P u . O O O O ; - r.x.I.!.!.I.m.m.n.N.!.!.$X$X$X$Xp.u.F F O O O O O T T e.p.F.).=X*X{.E.i.#.K       ",
"    K o.|  .e.0.0.w.t.t.t.0.| P k o o o O O - ; u.u.I.I.N.x.x.M.n.m.!.!.$X$Xu.u.F F O O O O O T ! w.w.J.F.*X-X-X=X[.U.e.K L     ",
"    K }  . .| 0.t.t.t.t.u.q.q.! P P o O o O O ; ; / +.+.+.+.+.+.m.m.m.m.N.u.[ F F o O O O O T T 9.w.F.F.*X*X5X5X%X[.U.e.K L     ",
"    K }  . .| w.t.I.I.t.t.t.0.q.Q P P O o O O O ; ; / O.) +.+.+.m.m.m.m.u.{ F F O O O O O T Q 9.e.F.J.*X%X5X5X5X5XU.U.e.L L     ",
"    L K  . . .u.t.I.I.t.t.t.q.q.q.Q P g X X X O O & = m ^ ....+.+.+.+.` ' F C O O . . . g Q 9.r.A.F.F.-X-X5X6X6X5XU.F.e.L L     ",
"    K K  . .t.t.t.v.v.t.u.q.q.q.q.Q Q P s . . o O O & & m ^ ....+.+.` ' C t O O . . . f ! 9.9.A.A.A.J.%X-X5X6X6XU.F.e.e.L L     ",
"    K K  .t.t.t.t.t.t.t.t.q.q.q.q.0.Q Q P s . o O O O @ & m m ^ ^ ^ ' F t O O . . . f R 9.9.A.A.A.A.A.%X-X%X-XF.J.e.e.e.L L     ",
"    K K  .f.t.t.t.v.t.w.0.q.0.q.e.u.0.! Q P b . O O O O @ 4 0 C ^ U C t O O . . . g f 9.9.u.A.A.A.A.A.|.%X%X%XJ.F.e.e.e.L L     ",
"    K L  .I.W.!.v.v.n.v.v.q.t.f.T.T.T.H.Q ! P x . . . O O # 0 C C C t o O . . . h h 9.9.w.u.i.u.u.A.A.F.|.|.|.H.F.J.e.e.L L     ",
"      K w.W.W.R.R.M.v.v.v.v.v.L.T.T.[.[.T.) Q P s . . o O # 4 0 r t O O o . . x h 9.9.u.F.u.u.u.w.w.F.F.|.|.|.H.H.H.q.R K       ",
"      K c.W.@X@X~.R.v.v.v.v.n.L.L.[.*X*X>X>X! R P g 8 . O # @ 4 o O O o . . j h 9.9.G.G.F.u.u.u.a.A.F.|.|.*X$X|.G.G.0.Q K       ",
"        K c.@X@X@XR.~.M.v.Y.Y.Y.[.$X*X>X>X>X>X! ! g f 6 t % ; O O O O . . j h 9.9.G.K.G.G.x.u.u.w.F.F.|.|.4X4X4X|.L.x.K         ",
"          q.c.@X@X@X~.R.Y.Y.T.T..X*X*X4X4X4X>X[.Q K j 9 w B ; O O O . . o j Q 9.j.H.~.R.R.W.P.F.F.P.P.|.|.4X4X4X|.c.Q           ",
"            s.e.@X@X@X!.R.Y.Y.T.T.[.*X4X4X4X4X>X[.Q K h Z Z ; O O O     j ! <.j.H.!.!.!.!.!.!.P.I.P.|.|.4X4X4X|.r.(             ",
"              s.x.@X@X!.~.T.Y.T.T.[.[.4X4X4X4X:X[.Q K h Z Z ; o O O     j $.4.F.!._.-X&X!.!.!.P.P.P.|.|.4X4X4Xy.x.              ",
"                r.x.W.R.!.T.Y.Y.H.T.[.[.4X4X4X{.[.u.P Y Z Z ; ; O O     R -.h.!.!._.-X-XR.!.I.I.P.P.P.|.|.|.r.y.                ",
"                  J x.u.d.d.s.c.c.Y.H.[.[.[.{.{.[.c.! U Z Z ; ; O O     R 5.h.!.!.!.!.!.W.c.s.q.e.u.P.P.u.x.x.                  ",
"    O O O           K } W &.:.x.d.d.T.T.[.[.].].t.) } t Z Z ; O O O     $.8.c.l.R.R.W.!.Q.q.w. .| 0.u.u.c.u.          O O O     ",
"    O O O O           K K | ! :.>.c.d.d.T.T.y.y.u.) ) t Z Z ; O O O     $.8.a.u.u.R.R.Q.x.|  . . . .|  .R           O O O O     ",
"    O O O F O           K K ) ..:.:.u.c.u.x.y.x.! } C C w = O O O         $.,.x.c.u.u.e. . . . . . . .R           o F o O O     ",
"    O O O O O O           6 K K ) } :.:.x.r.W W K 1 2 2 . . O O           K $.$.u.u. . . . . . .Q R K           . o o o O O     ",
"      O O O O O             3 K K K K K K K L L 2 2 2                       K o. . . .R R R T ( R K             O O O O O       ",
"        O O O O                 1 3 K K K K 1 2                                 L L R R R R L K                 O O O O         ",
"                                                                                                                                ",
"                                                                                                                                "
};
