/* XPM */
static char *e91912d9120e41e7864388a6e4173618[] = {
/* columns rows colors chars-per-pixel */
"64 64 179 2 ",
"   c #4C5A31",
".  c #4C5B33",
"X  c #4E5C33",
"o  c #4D5C34",
"O  c #4F5D34",
"+  c #4D553D",
"@  c #4F573F",
"#  c #505E35",
"$  c #505F37",
"%  c #4E6030",
"&  c #4F6131",
"*  c #4F6032",
"=  c #506032",
"-  c #516133",
";  c #526434",
":  c #546636",
">  c #516038",
",  c #546239",
"<  c #566638",
"1  c #57643C",
"2  c #57663E",
"3  c #59663E",
"4  c #576939",
"5  c #59693B",
"6  c #596A3C",
"7  c #5A6A3C",
"8  c #5A683F",
"9  c #5A6C3C",
"0  c #5C6C3E",
"q  c #5C6E3E",
"w  c #5D6F3F",
"e  c gray30",
"r  c gray31",
"t  c #4F5840",
"y  c #505840",
"u  c #515A42",
"i  c #535B43",
"p  c #545C44",
"a  c #555D45",
"s  c #565E46",
"d  c #575F47",
"f  c #505050",
"g  c #515151",
"h  c gray32",
"j  c #535353",
"k  c gray33",
"l  c gray34",
"z  c #585858",
"x  c gray35",
"c  c gray36",
"v  c #5D5D5D",
"b  c gray37",
"n  c #5F5F5F",
"m  c #596840",
"M  c #5A6941",
"N  c #5B6A42",
"B  c #5D6B42",
"V  c #5E6E40",
"C  c #5F6F41",
"Z  c #5E6C43",
"A  c #5D6C44",
"S  c #5E6D45",
"D  c #5F6E46",
"F  c #586048",
"G  c #586149",
"H  c #596149",
"J  c #5A624A",
"K  c #5C644C",
"L  c #5C654D",
"P  c #5D654D",
"I  c #5E664E",
"U  c #5E674F",
"Y  c #606D45",
"T  c #616F46",
"R  c #606F47",
"E  c #626F47",
"W  c #627244",
"Q  c #627047",
"!  c #637545",
"~  c #657747",
"^  c #63724A",
"/  c #65734A",
"(  c #64734B",
")  c #667648",
"_  c #677749",
"`  c #66744B",
"'  c #67764E",
"]  c #68774F",
"[  c #68784A",
"{  c #6A784F",
"}  c #606850",
"|  c #636B53",
" . c #646C54",
".. c #656D55",
"X. c #656E56",
"o. c #666E56",
"O. c #676F57",
"+. c #6A7951",
"@. c #6C7B53",
"#. c #6D7C54",
"$. c #687058",
"%. c #697159",
"&. c #69725A",
"*. c #6A725A",
"=. c #6B735B",
"-. c #6B745C",
";. c #6C745C",
":. c #6D755D",
">. c #6E765E",
",. c #6F775F",
"<. c #606060",
"1. c gray38",
"2. c gray39",
"3. c #656565",
"4. c gray40",
"5. c #676767",
"6. c #686868",
"7. c DimGray",
"8. c #6A6A6A",
"9. c gray42",
"0. c #6C6C6C",
"q. c #6D6D6D",
"w. c #707860",
"e. c #717961",
"r. c #727A62",
"t. c #737B63",
"y. c #767F67",
"u. c #777F67",
"i. c gray44",
"p. c #717171",
"a. c #727272",
"s. c gray45",
"d. c #747474",
"f. c gray46",
"g. c #767676",
"h. c #777777",
"j. c gray47",
"k. c #797979",
"l. c gray48",
"z. c #7B7B7B",
"x. c #7C7C7C",
"c. c gray49",
"v. c #7E7E7E",
"b. c gray50",
"n. c #788068",
"m. c #7C846C",
"M. c #7C856D",
"N. c #7F876F",
"B. c #808870",
"V. c #818971",
"C. c #838B73",
"Z. c #838C74",
"A. c #848C74",
"S. c #858D75",
"D. c #808080",
"F. c gray51",
"G. c #838383",
"H. c #848484",
"J. c #868686",
"K. c gray53",
"L. c #888888",
"P. c gray54",
"I. c #8B8B8B",
"U. c gray55",
"Y. c #8E8E8E",
"T. c gray56",
"R. c #909090",
"E. c #929292",
"W. c #939393",
"Q. c #959595",
"!. c #989898",
"~. c #9B9B9B",
"^. c gray61",
"/. c #9D9D9D",
"(. c #9F9F9F",
"). c #A0A0A0",
"_. c #A2A2A2",
"`. c gray64",
"'. c #A5A5A5",
/* pixels */
"~./.~./.~.Q.~.~.m.m.] ] ] ! ! ! W ! ! ! [ [ ` #.#.#.A.A.'.'._.^.W.!.W.!.^.'.)././././././.!.Q.!.!.!.!.!.^.!.m.m.V.m.^.^.^.b.# j ",
"/.W.W.W.T.T.T.T.y.y.( ( ( ( ( ( W W ! W W _ ` ] B.N.B.B.~.~.!.L.T.~.L.T.Q.^.~.~.!.E.E.E.T.E.E.Y.E.T.Y.E.R.t.( ( ` ` u.Y.z.$ o l ",
"/.W.L.L.K.K.K.D.K.,.w.w.R R R R R R Q ^ R ( ^ y.n.m.n.E.W.R.W.H.R.E.D.D.L.W.L.W.E.Y.Y.L.H.H.L.F.F.b.b.F.w.w.D D Y R R M 1 > o o ",
"/.Q.L.D.b.D.l.b.l.l.-.-.,.-.*.*.*.Z A A =.=.,.w.,.w.K.K.K.K.D.K.K.c.z.l.c.z.c.K.L.H.H.b.F.b.b.b.b.h.h.h.*.&.&.*.B A B m > # # # ",
"~.W.L.D.D.b.b.l.b.b.D.K.D.D.K.,.=.=.R r.,.K.K.K.K.K.K.K.K.K.c.F.F.c.z.z.z.l.l.H.K.K.b.F.K.K.b.b.b.h.h.s.h.b.F.&.*.0 A 3 1 ; & & ",
"~.T.L.D.b.b.b.b.b.D.D.K.L.K.K.K.,.,.R ,.K.K.K.K.K.K.D.z.K.K.K.z.c.z.z.z.D.l.l.D.K.H.H.H.K.L.H.b.b.b.h.h.l.b.v.b.=.R Z M > = & = ",
"~.T.K.l.b.b.b.b.*.-.D.K.K.K.K.K.K.e.U e.K.K.K.K.K.K.N.D.D.D.z.z.z.x.z.z.D.K.K.K.K.K.K.K.K.K.K.F.l.b.K.l.G.H.b.F.=.=.B 3 : ; & & ",
"Q.T.K.l.b.l.b.B A -.*.K.K.K.K.K.H.H.,.,.K.K.K.K.K.K.F.c.c.x.z.z.z.z.D.L.D.K.K.K.K.H.H.F.K.K.L.L.s.H.K.K.H.b.b.8.=.w.Q 5 4 ; O % ",
"~.T.K.l.l.l.,.M A A *.,.K.D.L.L.H.D.&.,.K.Z.K.K.D.D.D.z.z.z.z.z.&.&.&.w.t.r.K.K.K.H.b.b.b.b.F.H.K.K.r.r.K.K.r.w.R R Z 9 < ; % % ",
"/.W.D.l.l.l.*.*.0 B B *.l.l.l.b.D.c.5.*.z.z.z.K.c.z.z.z.z.z.z.*.A A A D r.t.K.K.K.H.b.b.b.b.F.F.H.K.r.w.r.r.r.R R R Z 5 < ; % ; ",
"/.T.K.l.l.l.g.*.B M B *.l.l.l.l.z.D.z.k.l.z.z.z.z.z.z.z.z.z.*.,.Y R A Y r.H.b.b.H.b.b.b.b.b.b.b.H.H.K.w.r.r.R ^ 0 R 0 5 : ; % % ",
"~.W.K.b.l.g.l.l.*.B 0 *.l.l.b.l.z.v.d.k.h.z.z.z.z.z.N.z.z.*.=.,.R Y ( w.L.H.l.b.b.l.b.b.b.b.b.b.S.N.K.,.w.Q V 9 0 w w 5 : ; ; O ",
"/.W.L.b.D.L.b.l.,.^ A *.b.l.l.b.v.k.d.f.f.l.*.*.6.*.*.,.*.*.=.Q R Y r.H.K.H.b.l.b.h.l.l.l.b.l.l.c.N.r.6.A R 0 Z w 9 9 4 1 # O O ",
"/.T.T.K.K.K.D.L.w.w.A ,.b.b.b.l.D.c.k.f.f.*.8 Z Z Z M Z Z 8 Z A r.w.b.H.b.F.b.b.h.b.b.b.l.l.b.b.c.6.*.J B B Q 9 A Z 9 1 1 = O @ ",
"~.T.T.K.K.K.K.K.K.w.,.*.l.b.D.b.D.D.D.z.=.A Z M N A =.=.*.*.*.,.,.H.b.b.b.b.b.b.b.h.b.H.b.H.b.G.e.=.*.Z B M 9 R A =.*.| L s t t ",
"~.Q.W.K.K.K.K.K.K.L.,.,.l.b.D.l.z.N.D.=.A A Z X.,.-.-.=.b.b.*.,.Z.b.b.b.b.b.b.b.h.b.b.H.H.L.b.b.,.=.Z *.*.*.Z ! w.&.=.| 3.v t t ",
"~.W.L.K.K.K.K.K.K.K.H.b.l.l.z.z.*.B B B ;.;.*.z.b.b.b.b.b.l.l.l.l.b.b.D.K.H.H.H.H.D.b.K.K.K.K.K.r.R ,.=.>.r.>.r.r.6.*.q.3.l f g ",
"/.W.K.b.K.G.G.G.K.K.K.b.b.z.z.M M 0 B ;.;.;.z.b.b.b.b.b.l.l.l.l.l.z.z.b.H.z.K.K.K.K.K.K.K.K.K.K.w.^ r.w.Z.G.e.r.w.t.l.s.s.l e j ",
"/.W.^ ,.c.F.Z.c.K.K.K.K.b.b.;.*.*.*.*.;.;.z.z.z.b.l.l.l.l.l.l.b.z.l.l.l.b.b.K.K.K.K.K.K.K.K.K.K.r.,.r.r.L.K.w.,.t.K.K.b.1.c j l ",
"/.W.A A 8.F.c.c.b.K.K.K.b.b.;.*.*.*.*.*.z.z.z.z.l.l.b.l.l.b.l.l.b.l.z.b.z.b.K.K.H.H.H.K.K.K.K.K.w.*.,.r.L.L.w.o.g.K.K.b.s.n l l ",
"/.W.w.M Z =.=.,.H.H.b.K.b.z.z.z.z.z.z.z.z.z.l.z.l.l.l.l.l.l.l.l.l.z.l.b.z.b.D.D.b.D.b.K.K.K.K.K.Z.6.*.=.b.K.b.g.g.f.z.i.9.1.l l ",
"^.W.t.*.M A A =.b.z.z.b.b.b.b.b.b.z.z.z.b.z.z.z.b.l.l.b.l.b.l.l.z.b.z.b.b.b.l.g.b.D.b.b.b.H.K.b.x.l.*.*.z.z.K.G.g.f.f.q.9.| l l ",
"~.R.K.*.B R w.x.z.z.l.b.b.b.b.b.b.b.v.v.v.z.z.z.l.l.b.l.l.b.l.b.b.b.b.b.C.f.f.k.z.b.b.b.b.b.b.z.l.z.&.,.z.b.K.b.c.g.f.9.4.1.l l ",
"~.T.K.l.w.w.K.K.K.b.b.b.b.b.b.b.v.v.b.b.l.z.z.z.l.l.b.K.l.K.v.l.z.b.b.b.f.f.z.z.D.b.b.b.D.b.b.b.Z.l.6.=.K.K.K.K.z.j.f.9.4.n l l ",
"!.T.K.z.K.K.K.K.b.b.b.b.b.b.b.b.b.z.;.;.l.z.*.*.*.*.D.D.K.K.K.K.b.b.,.*.;.;.b.b.b.b.b.b.b.K.K.H.b.K.H.K.K.K.K.K.f.l.f.9.1.l g j ",
"^.~.W.Z.K.K.K.K.H.b.b.b.b.b.b.b.b.w.B B 8 Z Q A w.y.w.K.K.K.K.K.K.,.,.;.B B ;.b.b.b.b.b.H.K.K.H.K.K.K.K.K.K.K.K.K.K.z.j.q.l g l ",
").!.T.K.K.K.H.K.K.K.H.b.b.b.b.b.,.M D M 9 Z 9 Q ^ A w.t.K.K.K.K.w.w.R B B B Y B Y *.b.b.b.K.b.H.K.K.*.,.K.K.K.K.K.K.K.c.1.l t t ",
"`./.c.d.f.f.l.b.z.z.b.g.f.f.f.f.3 M M 8 5 5 0 0 B B B ,.*.b.l.*.J M B 3 M M ....M ....f.f.f.f.k.g.g. .B ,.z.v.l.c.z.z.g.9.u t y ",
"(.K.q.9.9.9.q.a.q.q.q.8.4.5.5.3 1 1 : : : : 5 5 3 3 1 3 3 3 1 1 $ 1 1 1 } 4.3.J J 3 d P 8.8.q.5.8.4.4.3 1  . .X.i.q.U U I $ # o ",
"F.1.1.1.1.1.1.1.1.1.1.1.1.1.v # $ $ : = : = = > # 1 1 1 1 # # * $ $ $ $ J c l l s s $ d v v v n v v v $ 1 $ d U K J d J @ $ o u ",
"l l l l l l u u h j u u l l u   o $ # % % % %       $ # O                 + e e l +   u l g h h h l t   $ O o o o o o o o o u l ",
"l l l c x + o     o a u u u @   $ $ = % % %           t u @ @ u u u   O O + + l 1.g t t l n l h h u $ $ $ o o o o o o o u u l l ",
"/././._.A.#.{ #.#.+.@.+.C.A.m.{ +.! _ ! _ ] ] { ] ] m.8.u l ~./.~.m.m.+.{ { #.A.'.`.~.~.`.`.'.'.C.#.#.#.+.#.#.A.A.+.+.A.V.^././.",
"W.W.W.Q.m.{ ] { +.+.{ +.{ ] ^ ` { ~ ~ Q ] ] ` ` n.u.*.d l l ~.W.W.W.u.m.` ] +.N.N.~.!.W.~.~.~.{ ! ! +.{ ] B.B.B.B.B.{ B.~.~.!.W.",
"W.L.K.L.W.u.n.u.( ( ( ( ( R Q Q W W Q ` ` ( Q r.w.*.L v l l /.W.K.K.L.w.R ^ ^ ( ( u.E.W.W.T.u.Q W ^ ` n.u.l.u.W.R.u.u.m.R.R.R.W.",
"L.D.b.b.K.K.=.,.w.R A ( A 5 9 5 8 0 R R R 8 Z X.,...8.| l l ~.W.K.b.D.w.B A R R ^ U >.N.K.t.D Z V ^ r.w.r.r.K.K.L.K.w.t.K.K.K.K.",
"Z.c.F.c.F.K.c.8.w.Q R Q 0 5 5 5 9 R R R B M B Z *.a.8.1.l l ~.T.b.C.6.X.o...R R Q Z Z *.=.9 w R W B =.w.,.Z.K.K.K.K.K.K.K.K.K.K.",
"F.c.b.F.F.z.x.x.,.w.W R B B B B 0 Z 0 B B 3 B 8 *.a.q.1.l l Q.I.b.g.o...g.f.*.*.A Z Z Z 0 w 0 0 Z 8 *.*.z.z.z.L.K.K.K.K.H.K.F.Z.",
"c.b.c.c.z.z.x.c.Z.,.*.0 B 3 B B Z *.$.$.B B B 0 B | 3.v l l Q.T.b.h.f.f.d.d.A.8.=.Z B B 9 9 9 9 0 B B z.z.z.z.c.K.K.K.F.F.F.c.F.",
"c.F.c.F.z.z.x.z.z.l.*.*.*.B M *.$.*.*.*.*.,.*.B M ..L v g l ~.T.b.g.f.f.f.l.Z.b.*.*.8 Z Z 0 5 0 8 R B l.z.z.z.z.K.K.F.F.c.c.c.F.",
"F.c.c.F.c.c.c.F.z.z.z.;.w.B 3 *.*.x.x.l.x.z.F.,.*...L s h l Q.T.K.l.f.f.g.z.x.b.z.z.z.6.w.R B 0 E R E R *.;.z.v.c.H.F.F.c.c.F.c.",
"b.F.c.b.F.b.F.c.D.K.K.K.w.R B *.l.x.l.x.Z.H.K.K.,.*.| d z g ~.T.G.z.f.h.j.z.z.z.z.K.K.z.w.w.R R R R R R B B U C.c.F.c.F.F.c.c.F.",
"c.F.c.F.b.F.b.c.D.D.K.K.t.R B *.x.l.x.l.K.K.K.K.K.8...K l l Q.T.b.j.h.h.z.z.l.b.Z.K.K.K.t.w.R W E R R R R B B *.F.c.c.c.F.c.c.F.",
"c.x.F.c.c.c.F.c.D.D.D.D.w.B B *.l.x.l.x.K.K.K.K.K.l...L z z /.T.b.f.h.z.z.z.z.b.K.K.K.K.w.w.,.B R ;.w.R R R R Y c.F.F.F.c.c.F.c.",
"g.d.F.x.c.F.b.c.b.b.b.b.*.B R *.z.z.z.z.z.F.F.c.D.g.a.8.l l ~.W.b.l.b.b.b.b.b.K.K.K.c.A.c.9.,.*.=.G.K.t.,.t.R R K.F.F.K.H.F.F.c.",
"f.f.j.F.F.c.F.c.b.b.b.b.;.B Y ;.F.z.z.z.z.c.F.c.b.g.8.3.l l /.W.L.b.D.K.b.b.D.K.K.K.F.c.F.c.=.6.b.K.J.K.t.w.t.R r.K.K.K.K.K.K.F.",
"F.f.j.z.c.c.c.x.b.b.b.b.;.B 0 R c.x.z.z.z.F.c.F.b.g.8.n l l ~.W.I.G.K.K.K.K.K.K.K.c.F.F.c.F.c.F.F.b.C.G.w.,.*.,.} ,.L.K.K.K.K.K.",
"j.g.g.b.F.F.z.z.z.b.l.*.*.B 0 Y P z.z.z.z.c.c.b.b.g.8.| l g Q.W.L.L.K.K.K.K.K.K.F.F.c.z.F.c.c.x.b.b.b.b.*.*.*.,.Y ;.c.F.K.L.c.F.",
"z.z.z.z.z.c.x.z.z.c.=.=.*.Z 5 9 5 *.*.*.z.z.N.z.D.d.9.c l g ~.T.K.K.K.K.K.K.H.b.x.F.x.l.x.F.b.x.z.b.z.z.=.%.=.=.J =.b.b.K.G.b.b.",
"z.b.z.z.z.z.z.z.l.8.*.*.8 5 9 9 Z *.*.*.*.z.z.z.z.d.4.v g l Q.W.K.K.K.K.K.K.L.b.F.x.F.x.x.l.x.l.c.z.z.z.=.%.k.z.=.Y ;.b.b.b.b.b.",
"F.b.x.z.z.z.z.z.=.=.*.=.0 9 9 A M Z =.&.*.*.z.z.z.i.4.n + t !.T.K.K.H.K.K.K.H.F.x.F.c.z.l.x.l.x.z.k.b.z.z.z.z.z.=.=.=.;.b.b.G.b.",
"K.F.c.F.b.z.z.z.*.=.*.B 0 0 A ^ M Z 9 =.*.*.-.D.c.d.4.n u t m.T.H.l.x.F.K.K.F.x.b.b.x.l.x.l.j.F.b.b.b.b.k.z.b.z.=.=.%.=.b.K.K.K.",
"K.H.H.F.x.F.z.z.K.r.,.R Z V r.r.,.7.=.&.=.,.,.,.K.z.9.1.r   m.n.K.l.x.K.H.l.l.l.j.x.l.x.x.l.x.c.b.b.b.b.b.z.b.b.b.=.=.=.F.b.K.K.",
"K.K.H.c.F.K.K.K.K.K.w.^ Q w.L.L.e.,.H.K.,.e.,.n.K.f.9.1.t O ] u.H.l.l.l.F.j.l.x.l.l.x.l.l.x.x.l.b.b.b.b.b.b.b.b.b.b.=.;.b.K.K.K.",
"K.K.H.b.H.K.K.K.K.K.L.6.,.e.K.K.K.K.K.K.K.,.,.,.D.d.9.1.O O ] ( L.x.l.x.b.b.c.x.l.x.l.x.x.l.x.l.z.b.b.b.b.b.b.b.G.b.b.b.b.H.K.K.",
"K.H.c.F.c.F.K.K.K.K.N.z.8.,.K.Z.H.K.K.K.K.C.5.7.z.d.4.n t   ! ( e.x.c.b.b.b.F.f.f.l.x.l.l.z.b.L.b.b.b.b.b.c.z.z.b.K.K.b.b.b.b.K.",
"b.b.b.b.b.b.c.G.H.A.c.z.z.K.c.z.z.z.H.H.F.x.x.x.z.p.5.c @ % ! ( P *.*.*.D.v.h.v.F.H.l.F.F.c.F.H.x.F.x.F.Z.z.z.x.z.b.b.z.b.b.b.K.",
"b.b.b.b.b.b.b.b.F.N.z.z.z.c.z.z.z.z.N.c.x.x.z.z.z.p.5.c @ * ! ( R *.*.*.v.D.v.G.K.K.F.K.L.L.K.K.F.x.F.x.c.z.z.z.z.z.z.b.b.b.b.z.",
"b.b.b.b.b.b.C.b.9.6.N.b.F.c.z.z.z.z.z.z.x.x.x.x.z.p.q.| u % ! ( w.*.;.b.D.v.D.D.F.K.L.H.K.L.e.e.x.F.x.F.z.l.l.l.z.z.z.b.b.b.b.b.",
"s.f.h.s.h.i.p.p.X.| X.h.d.d.p.d.p.p.p.p.p.a.a.a.p.p.q.1.@ % _ _ ,...g.g.h.f.g.h.f.z.F.f.f.j.,.| | i.f.d.s.s.a.p.s.s.h.f.f.f.f.f.",
"9.7.5.5.5.5.5.5.$ 1 } } 9.9.4.8.5.5.1.p.q.5.p.p.5.5.p.5.i * Q =.} 8.0.8.8.8.8.0.9.q.f.q.q.q.9.P x L } P L L L } 5.5.9.9.q.9.9.9.",
"n v v v v n v p # # + d s v v v c z z 5.5.3.5.5.5.3.5.5.i O A J 1.1.1.1.1.1.1.1.1.1.1.1.1.| c % # # # & # = # a d 1.1.1.1.1.n n ",
"j j j j k k @ @     t t t t j h k r k 1.c 1.c 1.1.1.1.c d $ G d l l l l l l l c l l l x x g @ #   % & & % %       u l l l l j j ",
"j j j j k j @       u t t t j h k k k c c 1.1.1.c c c 1.G d G G h h g h h l l l n l l j j h @   % % &   % #     o # l l l l j j "
};
