/* XPM */
static char *_c6e4512b78e4329f8312a6039c5d227[] = {
/* columns rows colors chars-per-pixel */
"64 64 23 1 ",
"  c gray31",
". c #535353",
"X c gray34",
"o c #585858",
"O c #5D5D5D",
"+ c #626262",
"@ c #676767",
"# c #6A6A6A",
"$ c #6C6C6C",
"% c #727272",
"& c #777777",
"* c gray48",
"= c gray50",
"- c #808080",
"; c gray53",
": c #888888",
"> c gray56",
", c #939393",
"< c #959595",
"1 c #9B9B9B",
"2 c #9D9D9D",
"3 c #A0A0A0",
"4 c #A4A4A4",
/* pixels */
"1212<11<111<11<11121223444443441,<,11422222221<11<111<1111222=X.",
"2,,,>>>>>>>>>>>>>,,,,<,22122111:>2:><111<,,,>>>>>>>>>,>>>>>>*+XX",
"2,::;;;;-;-;-;;-;-::::>:>,,>>,,-,>--;,:,,>>::;;;;==-;-;;-;;*@+XX",
"2<:-==**=*---=*=*=-===;;;;;;;;;;;=**=*-:;;-===****%&****=**%@OXX",
"1,:--==*==-;;---=*:;-;;;;;;;;;=-==*****;;;=-;;-==&&%**===*=&@OXX",
"1>:-=====--;;;::==;;:;;;;;-*;;;*=*=*=**=;;;-;;;-==&%*======%@O..",
"1>;*======-:;;:;;;;:::;;;;-=-=****=*-;;;;;;:;;;-*=;&;--====&#+..",
"<>;*=*=====;;;;;;;--;;;;;;-==*=***=:-;;;:;--;;;:&;;;;=--=--&#OX.",
"1>;*****====;-;;;=*;;=:;==-***=*=*=-;;;;;---=--:::;;;;;;;;-&#+XX",
"1>;*==*=*==**==*===****;==**=*****=-;;;;;---==;-;-;;;;;;;;;%$+XX",
"2>;**&&***=******=****=****=***=-=;;;;==-=---=-=-;;;;;:;;-=&$OXX",
"2,:**&&******=**=*%&&******=***;:;;;;;=====**=-===;=;;;-===%#+XX",
"2,:=-:=*=-===**==*%&%****===*==;;;:;;-******=*=*==-=-:;--==$$+XX",
"2>>;;;-:;;;====*==*&&*=**===**=;;;--=;==****=**==****=---=*%@OXX",
"1>>;;;;;;;:=*======*===&*===*=-=;--======**;=-=-;=*****;-=*%@O.X",
"1<,;;;;;;;--*==**======&====-*====-=====**;;;;---===**=;:*=$@O. ",
"1,:;;::;;;-=*=**=*===========*=***--;;;----;;;;;:;-=;;-;;**$@X. ",
"2,:-;-;-;;:==******===*==-==****=*=*;*;;:;;:;;;;;;;;--;;;;*&%X .",
"2,:=--==;;;;==*=***=*==*****=*****=*=*;;::::;;;;;:;;;;;-;;;*+o.X",
"2,:=====-;;;-=**=**=*****=*=**=****=*=;;-;-;;;;;-*=;;;;&&;;=&OXX",
"2,;**===;-=;=*******=*=**=**=**==**=*=---==;:::;--*==;-&&&*$#OoX",
"1,:**====**======*=*************=*====*&-===--;-=**==*;-&&&$#+XX",
"1,;*=;;*=**==========**==****=**=====%&&=======****-*=;==%&#@+XX",
"<>;=--;;;===========******=;*;=**===&&**=========*==;;;;*&%#@+XX",
"1>;*;;;;---=========***=*===;;;;*=-=========-;;;-;-;;;;;&&&#+X..",
"21,=;;;;--=========**=:-;;;;;;;;;;-=========-;;;:::;;;;;;;&&$X X",
"3<>;;;;;;;;========****;;;;;;;;:;;==========-;=-;;=;;;;;;;;=OX X",
"41-&&%*==**&&%&&%&&%%%=**==*=*=**%=&&%%&&%&%&&%*&%%&=*===***#X.X",
"2:$##$#%$###@##$#$#@@@%&$%%%%&#$###$##@+@#@@###@#@##$%%%$$###+XX",
"=+++++++++++OOOO++OOOOOO@@###oOOOOOO+oXXoOOOOOOOOOOO@O+#@+++++XX",
"XXXXXXXX..XXoX..XoX.......Oo+........   X...X....X..+XXXooXXXXXX",
"XXXOooX..Xoooo..O+o.......X........XX  XO...oOX..XOOOXXoXXXoXXXX",
"222344234342341<13312<1<111*XX1211122144432134343444344443433222",
",<<<111121112<>>111<21>,,>*OXX1,,>,<,<12111,111122121122221111<,",
",:;:>>,>,,,>>;;;-,,,,>>;;=#OXX2,:::::>>,,>>,,,>,,>,,>,,>,>,>>,,,",
";===;;=;;;;;-**&&:;;;****%$OXX2,:---=--;;;;=;;;;;;;;;;;;;;;;;;;;",
"-===-;==-;;;**=**;--=**=*&#+XX<>-==&&&--;==*==;;===;=-;;;;;;;:;;",
"--===***=;;-*=***=*=****=$#+XX1:-%&%%&=-===**=-=***==*=;;;;;-:--",
"====*=*==;*=****=**=**=**%@OXX<>=&%&&&=====***=**=****==;;;=----",
"====**=*=*****=******==**%@O.X1>=&&%&*===**=*****-=*****;;;--==-",
"=========***;*=*******--=%@O..<>-*&%%*==****--==;;;;**==-----===",
"========-:;;:-**=*=*=;::-=#@X.1,;*&&****=;:*:-;;;;;;====----====",
"=========-;;:;****=*;;::;*%@XX<:=&&&*==*-;;;:;;;;-;;-;---==-====",
"=========----==*****;;;;;=%#oo2,=&&****-;;;;::----;;;--===--====",
"&%============-******===-&%@XX2,-*===*-:;;--====-;;;;;;;:--;;---",
"&&*===========-=-=**=====%#@XX2,:=-;---;;;======-;-;;;;;:;:;;;:-",
"-&&*==========-;-**=*====&$OXX<<:-;;:;;;;--=====---;----:;;;::;;",
"&&&===**=*=***=-*=**=====&#+..1,>;;;;;;;---=========*=======;:--",
"***=*-***==*****=**=**=*=&#O..1>;;;;;;;===**=======*****====;--=",
"*=****=****==**=*******=*%@O..<>;;;:;;;===-*******=**==*========",
"-==*****=****=*=****=****%@O..<>;;-:;;;====**=**=*******=*==-=-;",
";=====***=*==-;;=*=***===%@O..1>;*==;;=*===****=====**=*=**=-:;-",
":;;===*=;:-;=;;;--***---;*$+..1>-=*;;**=**=***============*=-=;;",
";;-=;;;;;::;;;;;;;;;-::;;&#+.X1>;***=********=***===========-:;;",
";;;=-:;;;;;=--;;::;;:;;;=&#+XX<>;***===*=**=**=**=======---=--;;",
";-==--;;;;==-;;=-;;;;-=**%@O..1>-======&%*****=;-====**=-:;===-;",
"======--;==*=:=***--;*=**%@O..<>;*====&=-:=----:======*====*-==;",
"========-=****=**=;*=****%@O..1>;=*===--::=;;;;-====*******=====",
"======--==**==**=**=**==*%$+..1>;======-;-;;;;;;=====*=***======",
"%&&%&%$%%&&&&%%%%$%%%%$%%%$O..2,=%&%&%&&%=*&&*=&%$&%%%$%%%&%%&%&",
"###@@@@@###$##@@#@+$###%@#$#oo1=#########$&#$$#@#@@@@@@@@@#####$",
"OOOOOOOOoOOOOOOOooX#@@@#@++#oo=+++++++++++++++OOOOOOOOOOO++++++O",
"........X........ XOO+O++OO++o+oXXXXXXXooXXXX...........XXXXXX..",
"...................+OOO+OO+OO+OO... XXXXOXX..............XXXXX.."
};
