/* XPM */
static char *_984249cb3c84ab1a7464d9487b71114[] = {
/* columns rows colors chars-per-pixel */
"64 64 126 2 ",
"   c #271E11",
".  c #2C2213",
"X  c #362A15",
"o  c gray20",
"O  c gray24",
"+  c #631C00",
"@  c #6D2600",
"#  c #682105",
"$  c #722B05",
"%  c #773007",
"&  c #7C350C",
"*  c #5C7300",
"=  c #617805",
"-  c #667D06",
";  c #64532E",
":  c #65532F",
">  c #67542F",
",  c #675430",
"<  c #685430",
"1  c #685530",
"2  c #6D5632",
"3  c #6C5732",
"4  c #6E5734",
"5  c #6F5835",
"6  c #715A36",
"7  c #725B37",
"8  c #72613C",
"9  c #74613D",
"0  c #007251",
"q  c #057756",
"w  c #067C5B",
"e  c #1C4475",
"r  c #21497A",
"t  c #264E7F",
"y  c gray28",
"u  c #515151",
"i  c #5B5B5B",
"p  c #7E6743",
"a  c #9E0101",
"s  c #A30606",
"d  c #A80B0B",
"f  c #AD1010",
"g  c #B21515",
"h  c #B71A1A",
"j  c #BC1F1F",
"k  c #813A11",
"l  c #863F16",
"z  c #C12424",
"x  c #C62929",
"c  c #CB2E2E",
"v  c #8B441B",
"b  c #904920",
"n  c #806945",
"m  c #877551",
"M  c #907955",
"N  c #6B820B",
"B  c #708710",
"V  c #758C15",
"C  c #7A911A",
"Z  c #7F961F",
"A  c #0B8160",
"S  c #108665",
"D  c #158B6A",
"F  c #1A906F",
"G  c #1F9574",
"H  c #249A79",
"J  c #299F7E",
"K  c #8D8000",
"L  c #928505",
"P  c #978A00",
"I  c #9C8F05",
"U  c #A1940A",
"Y  c #A6990F",
"T  c #AB9E14",
"R  c #B0A319",
"E  c #B5A81E",
"W  c #849B24",
"Q  c #89A029",
"!  c #BAAD23",
"~  c #9F844D",
"^  c #A0844D",
"/  c #A38750",
"(  c #A48650",
")  c #A98A53",
"_  c #A98B54",
"`  c #AB8C56",
"'  c #AD8C56",
"]  c #B2915A",
"[  c #B4905A",
"{  c #B5915B",
"}  c #B7945E",
"|  c #B9955F",
" . c #BB9761",
".. c #B39861",
"X. c #B49962",
"o. c #B79A63",
"O. c #BC9862",
"+. c #B89B64",
"@. c #BA9D66",
"#. c #BD9E67",
"$. c #BD9F68",
"%. c #BFA06A",
"&. c #C1A069",
"*. c #C2A26C",
"=. c #C4A36D",
"-. c #C6A56F",
";. c #C8A46E",
":. c #C7A670",
">. c #C8A670",
",. c #CAA872",
"<. c #CCA973",
"1. c #CDAA74",
"2. c #CEAB75",
"3. c #D0AC76",
"4. c #2B5384",
"5. c #305889",
"6. c #355D8E",
"7. c #3A6293",
"8. c #3F6798",
"9. c #446C9D",
"0. c #4971A2",
"q. c gray59",
"w. c #A0A0A0",
"e. c #AAAAAA",
"r. c #B4B4B4",
"t. c gray",
/* pixels */
">.>.3.>.$.$.&.X...$...X.....$.X.:.2.X.-.<.3.3.3.<.3.;.;.X.X.;.$.X.X.X...=.&.3.3.3.3.3.3.1.3.3.3.3.3.3.3.3.3.1.<.3.1.X.1.1.X.<.' ",
"1.. . . .                                   Q Z V V V V N =       . . . . . . . .                                     . .     ^ ",
"$.. . . .                                   W C B B B B - *       . . . . . . . .                                     . .     ^ ",
"$.. . . .         . . . .                   W C B B B B - * . . . . . . . . . . . . . . . . . . . . . . . . . . . . . . . . . ' ",
"&.. . . .         . . . .                   W C B B B B - * . . . . . . . . . b l & & & $ # .   . . . . . . . . . . . . . . . ~ ",
">.c z h h h h f s X X X X 0.8.6.6.6.6.6.4.r W C B B B B - * . . . X X X X X X v k % % % $ + W W V V V V V N = X X X X X X X X ~ ",
"3.x j g g g g d a X X X X 9.7.5.5.5.5.5.t e W C B B B B - * . . . X X X X X X v k % % % @ + W C B B B B B - * X X X X X X X X / ",
"3.x j g g g g d a X X X X 9.7.5.5.5.5.5.t e W C B B B B - * . . . X X X X X X v k % % % @ + W C B B B B B - * X X X X X X X X ~ ",
">.x j g g g g d a X X X X 9.7.5.5.5.5.5.t e W C B B B B - * . . . X X X X X X v l % % % @ + W C B B B B B - * X X X X X X X X ~ ",
"3.x j g g g g d a X X X X 9.7.5.5.5.5.5.t e W C B B B B - * . . . X X X X X X v k % % % @ + W C B B B B B - * X X X X X X X X ~ ",
">.x j g g g g d a . . X X 9.7.5.5.5.5.5.t e W C B B B B - * c z h h h h h d s v k % % % @ + W C B B B B B - * . . X X X X X X ~ ",
"3.x j g g g g d a . . X X 9.7.5.5.5.5.5.t e W C B B B B - * x j g g g g g d a v k % % % @ + W C B B B B B - * . . X X X X X X ~ ",
"3.t.r.e.e.e.e.w.q.J G A q 9.7.5.5.5.5.5.t e W C B B B B - * x j g g g g g d a v k % % % @ + W C B B B B B - * J G D D D D A q / ",
"1.t.r.e.e.e.e.w.q.H F w 0 9.7.5.5.5.5.5.t e W C B B B B - * x j g g g g g d a v k % % % @ + W C B B B B B - * H F S S S S w 0 / ",
"M t.r.e.e.e.e.w.q.H F w 0 9.7.5.5.5.5.5.t e W C B B B B - * x j g g g g g d a v k % % % @ + W C B B B B B - * H F S S S S w 0 p ",
": t.r.e.e.e.e.w.q.H F w 0 9.7.5.5.5.5.5.t e W C B B B B - * x j g g g g g d a v k % % % @ + W C B B B B B - * H F S S S S w 0 7 ",
">.x j g g g g d a H F w 0 9.7.5.5.5.5.5.t e i u y y y y O o x j g g g g g d a v k % % % @ + W C B B B B B - * t.r.e.e.e.e.w.q.3.",
"} x j g g g g d a H F w 0 9.7.5.5.5.5.5.t e i u y y y y O o x j g g g g g d a v k % % % @ + W C B B B B B - * t.r.e.e.e.e.w.q.~ ",
"^ x j g g g g d a H F w 0 9.7.5.5.5.5.5.t e i u y y y y O o x j g g g g g d a v k % % % @ + W C B B B B B - * t.r.e.e.e.e.w.q.~ ",
"_ x j g g g g d a H F w 0 9.7.5.5.5.5.5.t e i u y y y y O o x j g g g g g d a v k % % % @ + W C B B B B B - * t.r.e.e.e.e.w.q.~ ",
" .x j g g g g d a H F w 0 9.7.5.5.5.5.5.t e i u y y y y O o x j g g g g g d a v k % % % @ + W C B B B B B - * H H S S S S w 0 ( ",
"O.x j g g g g d a H F w 0 9.7.5.5.5.5.5.t e i u y y y y O o x j g g g g g d a v k % % % @ + W C B B B B B - * H F S S S S w 0 [ ",
"} x j g g g g d a H F w 0 9.7.5.5.5.5.5.t e i u y y y y O o x j g g g g g d a v k % % % @ + W C B B B B B - * H F w S S S w 0 ^ ",
"~ x j g g g g d a H F w 0 9.7.5.5.5.5.5.t e i u y y y y O o x j g g g g g d a v k % % % @ + W C B B B B B - * H H S S S S w 0 ^ ",
"O.x j g g g g d a H F w 0 9.7.5.5.5.5.5.t e i u y y y y O o x j g g g g g d a v k % % % @ + W C B B B B B - * H F w S S S w 0 O.",
" .x j g g g g d a H F w 0 9.7.5.5.5.5.5.t e W C B B B B - * x j g g g g g d a v k % % % @ + W C B B B B B - * H H S S S S w 0 O.",
"| x j g g g g d a H F w 0 9.7.5.5.5.5.5.t e W C B B B B - * x j g g g g g d a v k % % % @ + W C B B B B B - * H F S S S S w 0 { ",
"[ x j g g g g d a H F w 0 9.7.5.5.5.5.5.t e W C B B B B - * x j g g g g g d a v k % % % @ + W C B B B B B - * H F w S S S w 0 [ ",
" .x j g g g g d a H F w 0 9.7.5.5.5.5.5.t e W C B B B B - * x j g g g g g d a v k % % % @ + W C B B B B B - * H H A D A S w 0 } ",
"O.x j g g g g d a H F w 0 9.7.5.5.5.5.5.t e W C B B B B - * x j g g g g g d a v k % % % @ + W C B B B B B - * H G D A D S w 0 O.",
"8 x j g g g g d a H F w 0 9.7.5.5.5.5.5.t e W C B B B B - * x j g g g g g d a v k % % % @ + W C B B B B B - * H D A A A A w 0 8 ",
"< : : ; ; > 4 4 7 7 7 4 7 7 7 7 7 7 7 7 7 7 7 7 7 7 2 2 : : 2 : ; ; ; > , 7 7 7 7 7 7 7 7 7 7 7 7 7 7 7 7 7 7 , 7 7 , , , : 2 , ",
":.2.@.:.3.1...%.X.....2.2.%.@.X.%.:.@.:.%.2.2.2.2.1.:.:.:.X.%.%.......-...2.2.*.2.2.3.3.3.1.,.2.3.3.3.3.1.1.3.3.3.:.;.@...1.X.' ",
"3.    . . . . . . . . . .               .               . . . . . . .   .                       . . . 0.9.6.6.6.6.4.r     . . ~ ",
"*.    . . . . . . . . . . .                 . .     .   . . . . . . .                           . . . 9.7.5.5.5.5.t e     . . ~ ",
"+.. . . . . . . . . . . . . . . . . . . . . . . . . . . . . . . . . . . . . . . . . . . . . . . . . . 9.7.5.5.5.5.t e . . . . ` ",
":.. . . . . . . . . . . . . . . . . . . . . . . . . . . . . . . . . . . . . . . . . . . . . . . . . . 9.7.5.5.5.5.t e . . . . ~ ",
"=.. . . . . . X X X X X X c z h h h h h f a X X X X X X X X X X X X X X X X ! R Y Y Y Y I L X X X X X 9.7.5.5.5.5.t e . . . . ~ ",
"3.. . . . . . X X X X X X x j g g g g g d a X X X X X X X X X X X X X X X X E T U U U U P K X X X X X 9.7.5.5.5.5.t e . . . . / ",
"3.. . X X X X X X X X X X x j g g g g g d a X X X X X X X X X X X X X X X X E T U U U U P K X X X X X 9.7.5.5.5.5.t e . . . . ~ ",
"3.. . X X X X X X X X X X x j g g g g g d a X X X X X X X X X X X X X X X X E T U U U U P K X X X X X 9.7.5.5.5.5.t e . . . . ~ ",
"1.. . X X X X X X X X X X x j g g g g g d a X X X X X X X X X X X X X X X X E T U U U U P K X X X X X 9.7.5.5.5.5.t e . . . . ~ ",
"$.X X X X X X X X X X X X x j g g g g g d a . . X X X X X X X X X X X X X X E T U U U U P K . . X X X 9.7.5.5.5.5.t e . . . . ~ ",
"..X X X X X X X X X X X X x j g g g g g d a . . X X X X X X X X X X X X X X E T U U U U P K . . X X X 9.7.5.5.5.5.t e . . . . ~ ",
":.b l & & & & & & & & $ # x j g g g g g d a . . X X Q Z V V V V V V V V N = t.r.e.e.e.e.w.q.c z h f s 9.7.5.5.5.5.t e J G A q / ",
"1.v k % % % % % % % % @ + x j g g g g g d a . . X X Z Z B B B B B B B B - * t.r.e.e.e.e.w.q.x j g d a 9.7.5.5.5.5.t e H F w 0 / ",
"m v k % % % % % % % % @ + x j g g g g g d a . . X X Z C B B B B B B B B - * t.r.e.e.e.e.w.q.x j g d a 9.7.5.5.5.5.t e H F w 0 n ",
"< v k % % % % % % % % @ + x j g g g g g d a . . X X Q C B B B B B B B B - * t.r.e.e.e.e.w.q.x j g d a 9.7.5.5.5.5.t e H F w 0 < ",
"3.v k % % % % % % % % @ + x j g g g g g d a 0.8.4.e Z C B B B B B B B B N * t.r.e.e.e.e.w.q.x j g d a 9.7.5.5.5.5.t e H F w 0 3.",
"_ v k % % % % % % % % @ + x j g g g g g d a 9.7.4.e Z C B B B B B B B B N * t.r.e.e.e.e.w.q.x j g d a 9.7.5.5.5.5.t e H F w 0  .",
"^ v k % % % % % % % % @ + x j g g g g g d a 9.7.5.e Q C B B B B B B B B * * t.r.e.e.e.e.w.q.x j g d a 9.7.5.5.5.5.t e H F w 0 ^ ",
"^ v k % % % % % % % % @ + x j g g g g g d a 9.7.4.e Z C B B B B B B B N N * t.r.e.e.e.e.w.q.x j g d a 9.7.5.5.5.5.t e H F w 0 ^ ",
"O.v k % % % % % % % % @ + x j g g g g g d a 9.7.4.e Q C N B B B B B B B N * R T U U U U P K x j g d a 9.7.5.5.5.4.t e H F w 0 ' ",
"] v k % % % % % % % % @ + x j g g g g g d a 9.7.e e Z C B B B B B B B B N * R T U U U U P K x j g d a 9.7.5.5.5.5.t e H F w 0 ) ",
" .v k % % % % % % % % @ + x j g g g g g d a 9.7.4.e Z C B B B B B B B B N * E T U U U U P K x j g d a 9.7.5.5.5.5.4.e H G w 0 ( ",
"~ v k % % % % % % % % @ + x j g g g g g d a 9.7.4.e Z C B B B B B B B B N * E T U U U U P K x j g d a 9.7.5.5.5.4.t e H F w 0 ' ",
"O.v k % % % % % % % % @ + x j g g g g g d a 9.7.4.e Z C B B B B B B B B N * R Y U U U U P K x j g d a 9.7.5.5.5.5.4.e H F w 0  .",
" .v k % % % % % % % % @ + x j g g g g g d a 9.7.4.e Q C B B B B B B B B N * E T U U U U P K x j g d a 9.7.5.5.5.4.t e H F w 0 O.",
"| v k % % % % % % % % @ + x j g g g g g d a 9.7.e e Q C B B B B B B B B N * E T U U U U P K x j g d a 9.7.5.5.5.5.t e H F w 0 [ ",
"[ v k % % % % % % % % @ + x j g g g g g d a 9.7.4.e Z C B B B B B B B B N * E T U U U U P K x j g d s 9.7.5.5.5.5.4.e H F w 0 [ ",
"O.v k $ % % % % % % % @ + x j g g g g g d a 9.7.4.e Z Z B B B B B B B B * * R T U U U U I P x j g d a 9.7.5.5.5.4.r e H F w 0 | ",
"O.v k % % % % % % % % @ + x j g g g g g d a 9.7.e e Z C B B B B B B B B N * E T U U U U I b x j g d a 9.7.5.5.5.5.4.e H F w 0 ~ ",
"8 v k % $ % % % % % $ @ + x j g g g g g d a 8.7.4.e Q C B B B B B B N B N * E T Y U U U P K x j g d a 9.7.5.5.4.5.4.e H F w 0 9 ",
"> > < 3 : , 7 7 7 7 7 7 7 7 7 < 7 7 7 7 7 7 7 7 7 7 3 7 7 ; , ; ; ; ; ; ; ; ; ; 3 3 8 3 8 8 7 7 7 7 7 7 7 7 7 7 : : ; ; ; > , > "
};
