/* XPM */
static char *a59dfc17685d4707dd671858d969c92fWgrOYZQeZxCscTbB[] = {
/* columns rows colors chars-per-pixel */
"64 64 256 2 ",
"   c #211A0E",
".  c #211A0F",
"X  c #221910",
"o  c #221B10",
"O  c #241D12",
"+  c #251C13",
"@  c #251E13",
"#  c #261D14",
"$  c #261F14",
"%  c #271E15",
"&  c #272014",
"*  c #272015",
"=  c #2A2214",
"-  c #302716",
";  c #342A17",
":  c #332918",
">  c #352B18",
",  c #372C19",
"<  c #382A17",
"1  c #392B18",
"2  c #3A2C19",
"3  c #392D1A",
"4  c #392F1C",
"5  c #3C2E1B",
"6  c #3D2F1C",
"7  c #3A301D",
"8  c #3E301D",
"9  c #42341F",
"0  c #4B391E",
"q  c #4C3A1F",
"w  c #473920",
"e  c #4D3B22",
"r  c #4E3C21",
"t  c #4F3D22",
"y  c #4E3C23",
"u  c #503E23",
"i  c #513F24",
"p  c black",
"a  c black",
"s  c black",
"d  c black",
"f  c black",
"g  c black",
"h  c black",
"j  c black",
"k  c black",
"l  c black",
"z  c black",
"x  c black",
"c  c black",
"v  c black",
"b  c black",
"n  c black",
"m  c black",
"M  c black",
"N  c black",
"B  c black",
"V  c black",
"C  c black",
"Z  c black",
"A  c black",
"S  c black",
"D  c black",
"F  c black",
"G  c black",
"H  c black",
"J  c black",
"K  c black",
"L  c black",
"P  c black",
"I  c black",
"U  c black",
"Y  c black",
"T  c black",
"R  c black",
"E  c black",
"W  c black",
"Q  c black",
"!  c black",
"~  c black",
"^  c black",
"/  c black",
"(  c black",
")  c black",
"_  c black",
"`  c black",
"'  c black",
"]  c black",
"[  c black",
"{  c black",
"}  c black",
"|  c black",
" . c black",
".. c black",
"X. c black",
"o. c black",
"O. c black",
"+. c black",
"@. c black",
"#. c black",
"$. c black",
"%. c black",
"&. c black",
"*. c black",
"=. c black",
"-. c black",
";. c black",
":. c black",
">. c black",
",. c black",
"<. c black",
"1. c black",
"2. c black",
"3. c black",
"4. c black",
"5. c black",
"6. c black",
"7. c black",
"8. c black",
"9. c black",
"0. c black",
"q. c black",
"w. c black",
"e. c black",
"r. c black",
"t. c black",
"y. c black",
"u. c black",
"i. c black",
"p. c black",
"a. c black",
"s. c black",
"d. c black",
"f. c black",
"g. c black",
"h. c black",
"j. c black",
"k. c black",
"l. c black",
"z. c black",
"x. c black",
"c. c black",
"v. c black",
"b. c black",
"n. c black",
"m. c black",
"M. c black",
"N. c black",
"B. c black",
"V. c black",
"C. c black",
"Z. c black",
"A. c black",
"S. c black",
"D. c black",
"F. c black",
"G. c black",
"H. c black",
"J. c black",
"K. c black",
"L. c black",
"P. c black",
"I. c black",
"U. c black",
"Y. c black",
"T. c black",
"R. c black",
"E. c black",
"W. c black",
"Q. c black",
"!. c black",
"~. c black",
"^. c black",
"/. c black",
"(. c black",
"). c black",
"_. c black",
"`. c black",
"'. c black",
"]. c black",
"[. c black",
"{. c black",
"}. c black",
"|. c black",
" X c black",
".X c black",
"XX c black",
"oX c black",
"OX c black",
"+X c black",
"@X c black",
"#X c black",
"$X c black",
"%X c black",
"&X c black",
"*X c black",
"=X c black",
"-X c black",
";X c black",
":X c black",
">X c black",
",X c black",
"<X c black",
"1X c black",
"2X c black",
"3X c black",
"4X c black",
"5X c black",
"6X c black",
"7X c black",
"8X c black",
"9X c black",
"0X c black",
"qX c black",
"wX c black",
"eX c black",
"rX c black",
"tX c black",
"yX c black",
"uX c black",
"iX c black",
"pX c black",
"aX c black",
"sX c black",
"dX c black",
"fX c black",
"gX c black",
"hX c black",
"jX c black",
"kX c black",
"lX c black",
"zX c black",
"xX c black",
"cX c black",
"vX c black",
"bX c black",
"nX c black",
"mX c black",
"MX c black",
"NX c black",
"BX c black",
"VX c black",
"CX c black",
"ZX c black",
"AX c black",
"SX c black",
"DX c black",
"FX c black",
"GX c black",
"HX c black",
"JX c black",
"KX c black",
"LX c black",
"PX c black",
"IX c black",
"UX c black",
/* pixels */
"& = 3 3 3 3 3 3 3 9 9 u u u u + + + = 4 4 4 9 9 9 9 , , % % = = 5 1 9 5 , - - - 2 2 9 9 4 4 4 4 = = = 3 3 3 9 2 - 3 3 3 u u r & ",
"& & & 5 5 5 5 5 5 5 7 7 u u u + + = = 4 4 4 9 9 r r , , % % = = 9 1 9 9 , - - - 2 2 9 9 9 4 4 4 4 4 4 5 5 9 3 3 3 5 5 u u u u u ",
"& & = = 3 3 3 3 5 5 7 7 u u u o o = = 4 4 4 4 u r r : : % % % 9 9 9 9 9 , , = = = 2 2 9 9 9 4 4 4 4 4 - - 9 5 5 = 3 3 u u u u u ",
"u $ = = 5 5 5 5 3 5 7 7 u u 5 5 o o = 4 4 4 u u 9 9 : : % % % 1 9 9 u u , , , = = 2 2 , 9 9 u u 4 4 4 - - 9 9 = = : : $ : : u u ",
"$ $ $ = 3 3 > 3 5 5 7 7 u r 5 5 5 = = = 9 9 u u 9 9 % % % % 1 1 1 0 u u - , , < < < , , , 9 u u u 4 = = - 9 9 3 3 : $ $ : : : # ",
"= = # # > > > > 7 7 u u u r 5 5 5 = = = 9 9 : : : : % % - - 1 1 0 0 0 - - = = < < : , , , 9 9 u u = = = 9 9 9 5 5 $ $ $ : : : # ",
"= = # > > > > > 7 7 u u 5 r . . # # # 9 9 9 r : : : % - - - - 1 0 0 r r = = . . : : , , , u u u - = = = = 9 9 9 9 $ $ : : : : = ",
"= # # > > = > > 7 7 7 5 5 . . . # # # 9 9 9 r r : : : - - - - 1 1 0 0 r = = . . : : , , u u u q - - = = 9 9 9 9 $ $ $ : : : : = ",
"- - # = = = = < 7 7 7 7 = = . . : : : , 9 9 r r r O O : : : 2 2 2 0 0 0 - = = . : 2 2 2 u u q q - - = = 9 9 9 9 $ $ $ 3 3 3 r r ",
"- : # # = = < < 3 7 7 < = = = = : : : , 9 9 r r r O O = = : 2 2 0 0 0 0 - - . . 2 2 2 9 9 u q q q = = = 9 9 9 9 $ $ $ 5 5 5 u r ",
": : : # $ $ < 3 5 < < < % % = = , , , , , 4 4 r O O = = = , 6 6 0 0 0 : : . . . . 2 9 9 0 0 q q q = = = 9 9 9 : = = % % 3 3 u u ",
": : o o $ $ 3 5 3 < < % % % - , , , , , , 4 4 O O = = = , , , 6 6 0 0 : : : . . . : : 9 0 0 9 9 9 = = 9 9 q q : : = % % 5 5 u u ",
"u 4 = = $ $ : 3 5 < < % % % - - , , , 9 , 4 4 O O = = = , , , 6 0 0 0 : : : : . . : : t t t 9 9 = = = q q q u : : % % % 2 3 r r ",
"4 4 4 = : : : 5 3 < < = = : - - 9 , 9 9 9 9 9 O O O O = , , , 9 0 0 r : : : . . : : : t t t 9 9 = = - q q u u u : % % % 2 2 r r ",
"4 4 4 : : : : = 5 3 3 = = : : 9 9 9 9 9 9 9 8 O O O = = , , , 9 9 r r : : . . . : : < 9 t t r t - - - + q u u u u ; ; 2 2 2 r r ",
"4 4 4 : : = = = 3 5 5 3 = = 2 2 9 9 9 9 9 9 8 8 O O O , , , 6 6 6 r 0 0 - - . . . < < 9 9 r r t t - + + + u u u ; ; ; . 2 2 2 r ",
"3 3 3 3 = = = = 5 3 3 5 = 2 2 2 9 9 9 9 9 9 9 9 = = = , 2 2 6 6 6 9 0 0 - - - . . < < 9 9 r r t - - + + + u u u ; ; . . 2 2 r r ",
"5 5 5 5 = = = : : : 5 5 1 1 2 2 2 9 9 9 9 9 9 9 = = = 6 2 2 6 6 9 9 0 9 9 - - % < < < 9 9 w w - - - + + + u u u ; ; . . . - r r ",
"3 3 3 3 3 = % % : : 5 5 1 1 2 2 5 9 w w w 5 5 5 5 5 6 6 6 6 6 6 6 6 9 9 9 = % % 3 3 3 9 9 9 r r - - + + 9 u u u ; ; ; . - - 9 9 ",
"5 5 5 5 5 % % % % 5 5 5 1 1 5 5 5 9 w w w 5 5 5 5 5 1 6 6 6 6 6 6 6 9 9 = = = % 5 5 8 8 8 9 9 r r o o o 9 9 r r ; ; @ @ @ - - 9 ",
"3 3 3 5 5 % % 1 1 5 5 5 1 1 5 5 9 9 w w w 5 5 1 1 5 1 1 6 6 = 6 6 9 9 3 3 + + + 8 8 8 8 9 9 0 0 $ o o o o 9 r r ; @ @ @ @ - - 3 ",
"5 5 5 5 5 % % 1 1 - 5 5 5 1 5 5 9 9 6 6 6 , , 1 1 1 1 1 1 < = = 9 9 9 3 3 + + % % 8 8 9 9 9 0 0 $ $ $ o o 9 r r : @ @ @ @ 6 6 5 ",
"5 5 5 5 5 - - - - - 1 1 5 5 5 5 9 9 w 6 6 , , 1 1 1 1 < < < = = 3 3 3 = = = + % % 3 8 8 9 w 0 0 $ $ $ $ o q q q : : @ @ @ 6 6 5 ",
"5 5 : : : - - - - - 1 1 5 5 5 5 w w w u u ; ; , , 1 9 < < = = . 3 3 3 3 = = % % % 5 8 8 w w w X X X $ $ 7 q q q : : @ @ @ - 6 6 ",
"5 5 : : , , - - - = 2 2 5 5 5 5 w w w u ; ; ; - , , 9 9 9 . . . . 9 9 9 9 = . . . 8 8 8 w w 9 X X X = = 7 7 7 9 = = @ @ 2 - 6 6 ",
", , , , , , : : = = 2 2 5 5 5 5 3 t t ; ; ; - - - , , 9 9 . . . . 9 9 9 = = . . . 8 8 9 r r 9 9 X X X = 7 7 9 9 = = $ 6 6 2 6 6 ",
", , : , , 9 : : , = 2 5 5 5 5 3 3 w t q ; ; - = = , r r : : . . . q q q = = = . 8 8 9 9 r r 9 $ $ X X 9 9 9 9 9 = $ $ 6 6 6 6 6 ",
"6 : : : 9 9 , , , : : 5 5 5 5 3 3 w w q q - - = = r r r : : . . . q q q = = = = 8 8 9 9 0 0 = = $ $ - 9 9 9 3 3 3 $ $ 6 6 6 6 , ",
"6 : : : 9 9 9 , , O : 5 5 5 5 3 3 9 9 9 - - - = = r r u u : : 9 9 q q u = = = 9 9 8 0 0 0 0 = = = - - 9 9 9 3 3 3 # # # 6 2 , , ",
"6 : : : 9 9 r r , O O 8 8 8 8 3 3 q q 9 - - - + + r r u = = = 9 9 9 u u u = = 9 9 0 0 0 0 = = = = - - 9 9 7 3 3 3 # # # 2 2 2 3 ",
"6 : : : : 9 r r r : : 8 8 8 8 3 r r w w - - - + + u u = = = = = = 9 9 q q = = 9 9 9 0 0 0 $ $ $ : - - 9 7 7 3 3 3 # # # 2 2 2 6 ",
"6 3 : : r r r r r : : : 8 8 3 3 r r w w - - - + u u u @ @ = = = = 9 9 q q % : 9 9 w 0 0 0 $ $ : : 1 3 3 7 3 3 3 3 = # # 2 2 2 6 ",
"3 3 : : r r r r # # : : 8 8 3 3 r r w r - - . . . u @ @ @ = = = 9 9 9 q % % : w w w 0 0 0 - = : 1 1 3 3 3 3 3 = = = # # - 2 2 6 ",
"2 3 3 r r 9 9 u # # = = 8 8 8 8 r r r r - - . . . = 3 3 3 - - : 3 9 9 9 9 : : w w w w w 0 - - = 1 1 3 3 3 3 7 = = = # # - - - 3 ",
"2 5 5 r r 9 u u u # = = = 8 8 2 2 r r r - 9 % % = = : 5 5 @ - : 5 3 9 9 9 - - - e e w w . . - = 5 5 3 3 3 7 7 - - - # # - - 6 3 ",
": : : 3 3 u u u u = = = 2 2 2 2 2 r r w 9 9 % % = = : : @ @ @ : 3 5 9 9 9 - - - e e w . . . . 3 5 5 3 3 3 7 r r - # # - - - 6 6 ",
"9 : : 5 5 3 3 r r = = = = 2 2 2 4 4 w w w 9 9 % = % % : = = 3 3 5 = = =   - - - r r w . . . : 3 3 3 3 3 3 r r r r # # - - - 9 9 ",
"9 4 3 3 3 5 5 r & & = = = 2 2 2 2 4 4 w w 9 9 9 9 % % % = = 5 5 2 2 = =       r r r w w 9 : : 3 3 3 3 3 9 9 r r ; ; % % 6 6 9 9 ",
"4 4 5 5 5 3 3 r & : & & : : 2 2 2 9 9 r r 9 9 9 9 = % o - - 3 3 2 2 2 2       r r r w 9 % % : : 5 3 3 7 9 9 r ; ; ; ; 6 6 6 6 4 ",
"9 * * * : : 9 9 : : & & : : 2 2 2 9 9 r r r 9 9 = = = o - - 2 2 2 2 2 O $ $ $ r r r 9 9 % % : : 3 5 9 7 7 9 9 ; ; % % % 6 9 9 4 ",
"9 * * * : : 9 9 : : & & & 3 3 3 2 2 2 y y r 9 9 = o o o : : 2 3 3 = = O $ $ 9 r r 7 7 7 . . . : 5 3 9 9 r r u u ; - % % % 9 9 r ",
"r * * * * : 9 9 4 4 @ @ - - 5 5 2 2 2 y y 0 0 0 o o o : : : 3 3 3 = = O $ = 9 9 r 7 7 7 . . . 5 5 5 9 9 r r u u u - - % % r 9 r ",
"2 * * * : : 0 0 4 9 @ @ - - - 3 2 2 7 7 y 0 0 0 : o o : : q q q + + = = = = = 9 7 7 7 . . . . 5 5 5 5 9 r 3 3 3 u - $ $ r r u u ",
"2 2 * * : : 0 0 0 9 @ @ - - 2 2 2 2 7 7 y 0 0 : : : : o o q q + + + = = = = 9 9 9 7 7 . . . . $ $ 5 9 9 9 5 5 5 = = $ $ r r u u ",
": 2 * * * : 0 0 :       = = 2 2 2 7 7 7 7 q q q : % % o o u u + + + = = - - - 9 9 i i . . . $ $ $ 5 7 7 7 7 7 7 $ = = $ $ u u u ",
": : * * 9 9 9 : :       = = 2 2 7 7 7 7 7 q q u u % % % % u u u + + = = - - 9 9 i i i 7 . . $ $ 2 2 7 7 7 7 7 7 $ $ $ $ $ u r r ",
"= = = * 9 9 9 : :       = = 2 2 2 7 7 7 q q u u - - - % % q u u + . = = : 9 9 9 t t 7 7 7 . . . 2 2 5 5 9 9 7 $ $ $ $ $ $ u r u ",
"= = O O O r r : : : # # = = 2 2 2 4 4 4 q q q - - - - . q q q # # . . : : : 9 9 t t 7 7 7 = . . 2 2 5 5 9 9 ; ; $ $ . . 6 6 u u ",
"= = O O O r r : : : # # = = 2 3 3 4 4 4 4 q q - - - . . q q q # # # # : : : 9 9 t t 7 7 = = . . 3 3 3 3 9 9 ; ; = = . . 6 6 6 u ",
"= = O O r r r : : : : - - : : 3 3 3 4 4 w w u = = = . 9 9 3 3 3 3 # # = = : > > t t t w = = . . 5 5 5 5 3 ; ; = = = . . 6 6 6 u ",
": : : : r r r r = = - - : : : 1 4 4 4 4 w w u u = = o 9 3 5 5 5 5 # # = = : > > t t t w = = - - - 3 3 3 ; ; ; ; = = @ @ 6 6 6 6 ",
": : : r r r r r = =       3 3 1 1 4 4 4 w w u u = = o o 5 3 3 6 6 # # - - > > t t t t - - - - - - - 5 5 ; ; 9 9 9 r @ @ o o 6 6 ",
": : % r r r r 4 : :       5 3 1 1 4 4 4 8 w u = = o o o : : 6 6 6 # # - - > > w w t t - - - - - - - 3 3 ; 9 9 9 9 r r - - o o 6 ",
": 2 % % r r 4 4 4 :     5 5 5 , 3 3 8 8 8 w w w - - - : : : 6 6 4 4 # # - - > > w w - - - : - - - - 3 3 3 9 9 9 r r r - - - - - ",
": 2 % % % = 4 4 4 4 : : : : : : , 8 8 8 9 w w w - - - - % : 6 6 , 4 # # - - > > 2 2 : : : : + - - ; ; r r r 9 t t r r - - - - - ",
"2 2 % % = = 2 t t 4 : : : : : : , 8 8 9 9 9 w - - - - % % % 6 6 , , t t = = = , 2 2 2 : : : + + - ; ; r r r r t t t - - $ - - - ",
"2 2 o = = = 2 2 t t t O O : : : 3 3 3 9 9 9 9 - : - - % % % 6 6 , t t t = = , , , 2 0 : : : + + = = ; 3 3 3 r t t - - - $ $ - - ",
"2 o o o o = 2 2 t t t O O O : : : 3 3 3 9 9 9 w : : % % % % O 4 4 0 0 < < < , , , 0 0 0 : : o o = = ; 3 3 3 r r + + + + $ $ 2 2 ",
"9 o o o , , 9 2 t t t O O O O : : 3 3 3 9 9 w w w = = % % O O 4 4 0 0 < < < , , , t t 0 0 o o o = = ; ; 3 9 r r + + $ $ 2 2 2 2 ",
": : = 3 , , 9 9 e e e t O O = = < < 3 3 9 9 w w w = = = = O O t t t 0 0 5 5 , , t t t 2 2 o o o = = ; ; ; 9 9 > = $ $ 2 2 2 2 4 ",
"9 : = 5 3 9 9 9 e e 9 9 O O = = < < 3 3 3 9 9 9 : : : = = : O t t t 0 5 5 5 5 , 0 t t 2 2 o X X X - 3 3 9 9 > > = = $ 9 2 9 9 9 ",
"9 : = 3 5 , , 9 9 9 9 9 O O = = < < 3 3 3 r 9 9 9 : , , , : : 0 0 5 5 5 5 5 5 5 0 0 0 0 4 X X X X - 5 5 9 9 > = = - > 9 9 9 9 9 ",
"9 : : 5 3 , , 9 9 9 9 9 = u = = = < < < 3 r r r r , , , % : : 0 0 5 5 5 5 5 5 5 0 0 0 0 4 4 X X - - 3 9 9 9 9 = - - > > 9 9 9 = ",
"& & : : 5 3 , 9 9 9 9 = = u u = + < < < 5 3 r r r , , , % % : : 5 5 5 5 5 5 5 - 2 2 0 0 4 4 X X = = 4 9 9 9 9 3 3 - - > u u = = "
};
