/* XPM */
static char *e9e60933b5284ffacc2d3c6a379a1c8aK2i5FxtsWsNO2YPn[] = {
/* columns rows colors chars-per-pixel */
"32 32 19 1 ",
"  c None",
". c #020202",
"X c #070707",
"o c gray3",
"O c #0B0B0B",
"+ c #0E0E0E",
"@ c gray6",
"# c #111111",
"$ c gray7",
"% c #151515",
"& c #161616",
"* c #1D1D1D",
"= c #232323",
"- c #2D2D2D",
"; c #393939",
": c gray26",
"> c #494949",
", c gray32",
"< c gray38",
/* pixels */
"                                ",
"                                ",
"                                ",
"                                ",
"                                ",
"                                ",
"                <<,             ",
"              <<:::,            ",
"            ,,::--::,           ",
"          ,,::-----::,          ",
"        <<::---***--::,         ",
"        <:---***%%=--::,        ",
"        <:-**%#%#+%=--::<       ",
"        <:**%%##+#%%=--::<      ",
"        ,,<#++OO..OX#=--:,      ",
"        ,,><+#OO..XX##=-:,      ",
"        ,:>>,#XXXXXO##,,,,      ",
"        ,:>>>,XOOXXX<<>>,,      ",
"        ,::>>>,###,,>>>>,,      ",
"        ,:::>>>,<<>>>>::,,      ",
"        ,:-;:>>><,>>::::,,      ",
"        ,: -;:>><,::::::,,      ",
"        ::  -;:>,,::::;;,,      ",
"        ::   -;:,,::;;--,,      ",
"              -;,,;;--  ,,      ",
"               -,:--    ,,      ",
"                ,:              ",
"                ,:              ",
"                ::              ",
"                ::              ",
"                                ",
"                                "
};
